<svg width="217" height="245" viewBox="0 0 217 245" fill="none" xmlns="http://www.w3.org/2000/svg">
<path d="M11.5586 12.6104V14.4795H0.837891V12.6104H11.5586ZM7.19727 8.04492V19.4316H5.20996V8.04492H7.19727Z" fill="#3A5B22"/>
<path d="M11.5586 65.2852V67.1543H0.837891V65.2852H11.5586ZM7.19727 60.7197V72.1064H5.20996V60.7197H7.19727Z" fill="#E5E5E5"/>
<path d="M11.5586 117.96V119.829H0.837891V117.96H11.5586ZM7.19727 113.394V124.781H5.20996V113.394H7.19727Z" fill="#E5E5E5"/>
<path d="M61.1992 12.6104V14.4795H50.4785V12.6104H61.1992ZM56.8379 8.04492V19.4316H54.8506V8.04492H56.8379Z" fill="#E5E5E5"/>
<path d="M61.1992 65.2852V67.1543H50.4785V65.2852H61.1992ZM56.8379 60.7197V72.1064H54.8506V60.7197H56.8379Z" fill="#E5E5E5"/>
<path d="M61.1992 117.96V119.829H50.4785V117.96H61.1992ZM56.8379 113.394V124.781H54.8506V113.394H56.8379Z" fill="#E5E5E5"/>
<path d="M61.1992 170.635V172.504H50.4785V170.635H61.1992ZM56.8379 166.069V177.456H54.8506V166.069H56.8379Z" fill="#E5E5E5"/>
<path d="M110.84 12.6104V14.4795H100.119V12.6104H110.84ZM106.479 8.04492V19.4316H104.491V8.04492H106.479Z" fill="#E5E5E5"/>
<path d="M110.84 65.2852V67.1543H100.119V65.2852H110.84ZM106.479 60.7197V72.1064H104.491V60.7197H106.479Z" fill="#E5E5E5"/>
<path d="M110.84 117.96V119.829H100.119V117.96H110.84ZM106.479 113.394V124.781H104.491V113.394H106.479Z" fill="#93B17D"/>
<path d="M110.84 170.635V172.504H100.119V170.635H110.84ZM106.479 166.069V177.456H104.491V166.069H106.479Z" fill="#E5E5E5"/>
<path d="M110.84 223.309V225.178H100.119V223.309H110.84ZM106.479 218.744V230.13H104.491V218.744H106.479Z" fill="#E5E5E5"/>
<path d="M160.48 12.6104V14.4795H149.76V12.6104H160.48ZM156.119 8.04492V19.4316H154.132V8.04492H156.119Z" fill="#E5E5E5"/>
<path d="M160.48 65.2852V67.1543H149.76V65.2852H160.48ZM156.119 60.7197V72.1064H154.132V60.7197H156.119Z" fill="#E5E5E5"/>
<path d="M160.48 117.96V119.829H149.76V117.96H160.48ZM156.119 113.394V124.781H154.132V113.394H156.119Z" fill="#E5E5E5"/>
<path d="M160.48 170.635V172.504H149.76V170.635H160.48ZM156.119 166.069V177.456H154.132V166.069H156.119Z" fill="#E5E5E5"/>
<path d="M160.48 223.309V225.178H149.76V223.309H160.48ZM156.119 218.744V230.13H154.132V218.744H156.119Z" fill="#E5E5E5"/>
<path d="M210.121 12.6104V14.4795H199.4V12.6104H210.121ZM205.76 8.04492V19.4316H203.772V8.04492H205.76Z" fill="#E5E5E5"/>
<path d="M210.121 65.2852V67.1543H199.4V65.2852H210.121ZM205.76 60.7197V72.1064H203.772V60.7197H205.76Z" fill="#E5E5E5"/>
<path d="M210.121 117.96V119.829H199.4V117.96H210.121ZM205.76 113.394V124.781H203.772V113.394H205.76Z" fill="#E5E5E5"/>
<path d="M210.121 170.635V172.504H199.4V170.635H210.121ZM205.76 166.069V177.456H203.772V166.069H205.76Z" fill="#E5E5E5"/>
<path d="M210.121 223.309V225.178H199.4V223.309H210.121ZM205.76 218.744V230.13H203.772V218.744H205.76Z" fill="#E5E5E5"/>
</svg>
