<svg width="925" height="881" viewBox="0 0 925 881" fill="none" xmlns="http://www.w3.org/2000/svg">
<path fill-rule="evenodd" clip-rule="evenodd" d="M1109.73 540.397C1103.88 666.088 1057.32 798.344 960.199 875.18C870.395 946.223 742.733 898.673 631.084 919.05C541.323 935.433 461.747 996.325 371.561 982.615C271.645 967.426 176.263 918.781 110.706 839.942C42.0447 757.371 -15.6864 647.974 4.74342 541.483C24.5447 438.269 155.039 405.995 210.882 317.773C271.982 221.246 238.278 53.0951 341.861 8.89855C443.333 -34.3976 532.645 106.881 639.054 135.08C756.924 166.317 899.222 101.015 992.469 181.314C1089.07 264.505 1115.74 411.146 1109.73 540.397Z" fill="#93B17D" fill-opacity="0.42"/>
</svg>
