<svg width="235" height="225" viewBox="0 0 235 225" fill="none" xmlns="http://www.w3.org/2000/svg">
<path fill-rule="evenodd" clip-rule="evenodd" d="M226.839 142.335C226.079 143.089 225.242 143.842 224.331 144.595C219.566 148.763 214.118 150.771 207.987 150.62L188.222 150.468L207.987 150.62C214.118 150.771 219.566 148.763 224.331 144.595C225.243 143.842 226.079 143.089 226.839 142.335L193.087 195.36C192.227 196.664 190.959 197.97 189.286 199.276C185.891 201.887 182.191 203.167 178.188 203.118L149.757 202.741L149.377 224.583L121.478 176.53L149.529 125.087L148.922 150.169L188.224 150.468L157.512 97.5209L206.772 69.3518L231.782 112.66C232.745 114.718 233.429 116.828 233.835 118.987C235.203 126.015 233.835 132.469 229.73 138.344C229.07 139.549 228.183 140.779 227.069 142.034C226.966 142.134 226.891 142.236 226.839 142.335ZM68.3407 6.53607C73.7122 1.76539 79.9974 -0.39324 87.1933 0.0586718L91.6024 0.811857L155.382 1.48972L160.779 2.69482C164.782 4.20119 167.773 6.66109 169.748 10.076L184.191 34.4039L203.274 23.4074L176.21 71.9126L117.219 74.7747L139.265 62.3471L119.348 28.8304L89.3203 82.3819L39.4521 55.1919L63.9301 11.5071C65.1981 9.69946 66.6683 8.04244 68.3407 6.53607ZM45.7632 148.512H107.262L107.338 204.925H59.5986C56.8117 205.076 53.7193 204.549 50.3243 203.344C43.5845 201.034 38.6676 196.664 35.5767 190.238C34.8667 189.033 34.2585 187.652 33.7522 186.096C33.398 184.991 33.0939 183.81 32.84 182.556C31.6237 176.429 32.5861 170.78 35.7287 165.609L45.7632 148.512L35.7287 165.61C32.5861 170.782 31.6237 176.431 32.84 182.557C33.0939 183.812 33.398 184.991 33.7522 186.097L3.80093 130.286C3.09092 128.879 2.58463 127.147 2.28056 125.089C1.67241 120.921 2.40674 117.131 4.48509 113.716L19.0046 89.4633L0 78.2409H56.0257L87.0413 127.951L65.376 114.921L45.7632 148.512ZM91.6024 0.811857L95.2513 1.41441C101.181 3.37269 105.666 6.98799 108.707 12.2603L119.349 28.8304L108.707 12.2603C105.666 6.98799 101.181 3.37269 95.2513 1.41441L91.6024 0.811857Z" fill="white"/>
</svg>
